<?xml version="1.0" encoding="utf-8"?>
<!-- Generator: Adobe Illustrator 23.0.5, SVG Export Plug-In . SVG Version: 6.00 Build 0)  -->
<svg version="1.1" id="Capa_1" xmlns="http://www.w3.org/2000/svg" xmlns:xlink="http://www.w3.org/1999/xlink" x="0px" y="0px"
	 viewBox="0 0 700 223" style="enable-background:new 0 0 700 223;" xml:space="preserve">
<style type="text/css">
	.st0{fill:#FFFFFF;}
	.st1{fill:#CCCCCC;}
	.st2{fill:none;stroke:#000000;stroke-width:7;stroke-miterlimit:10;}
	.st3{fill:#3333CC;}
	.st4{fill:#3333FF;}
	.st5{fill:#000732;}
</style>
<path class="st0" d="M656.9,223H43.1C19.3,223,0,203.7,0,179.9V43.1C0,19.3,19.3,0,43.1,0h613.8C680.7,0,700,19.3,700,43.1v136.8
	C700,203.7,680.7,223,656.9,223z"/>
<g>
	
		<image style="overflow:visible;opacity:0.34;" width="486" height="333" xlink:href="5C7DF713D47CB439.png"  transform="matrix(0.24 0 0 0.24 393.7418 13.6412)">
	</image>
	<g>
		<path class="st1" d="M483.9,78.5h-63.6c-6.3,0-11.5-5.1-11.5-11.5V40.2c0-6.3,5.1-11.5,11.5-11.5h63.6c6.3,0,11.5,5.1,11.5,11.5
			V67C495.4,73.3,490.2,78.5,483.9,78.5z"/>
	</g>
</g>
<g>
	
		<image style="overflow:visible;opacity:0.34;" width="369" height="271" xlink:href="5C7DF713D47CB43B.png"  transform="matrix(0.24 0 0 0.24 442.6326 45.8564)">
	</image>
	<g>
		<path class="st1" d="M504.7,95.7h-35.4c-6.3,0-11.5-5.1-11.5-11.5V72.4c0-6.3,5.1-11.5,11.5-11.5h35.4c6.3,0,11.5,5.1,11.5,11.5
			v11.8C516.1,90.5,511,95.7,504.7,95.7z"/>
	</g>
</g>
<g>
	
		<image style="overflow:visible;opacity:0.34;" width="378" height="263" xlink:href="5C7DF713D47CB43E.png"  transform="matrix(0.24 0 0 0.24 190.2333 57.3895)">
	</image>
	<g>
		<path class="st1" d="M254.4,105.4h-37.7c-6.3,0-11.5-5.1-11.5-11.5V84c0-6.3,5.1-11.5,11.5-11.5h37.7c6.3,0,11.5,5.1,11.5,11.5v10
			C265.9,100.3,260.8,105.4,254.4,105.4z"/>
	</g>
</g>
<polyline class="st2" points="77.6,73.4 124.2,83.1 169.9,73.4 "/>
<polyline class="st2" points="509.4,137.5 538.2,148.6 568.4,147.3 "/>
<polyline class="st2" points="579.4,115.6 610.2,115.5 637.9,103.2 "/>
<g>
	<g>
		<path class="st3" d="M233.2,184h-4.1l-4.7-34.8h-43.8l-4.7,34.8h-4.1l-2.4,32.4h6.4h15.2v-28c0-6.4,5.2-11.6,11.6-11.6
			c6.4,0,11.6,5.2,11.6,11.6v28h15.2h6.4L233.2,184z"/>
		<polygon class="st4" points="189.9,63.6 185.4,102.6 219.6,102.6 215.1,63.6 		"/>
		<path class="st3" d="M213.5,49.8l-1-12.4c0-2.4-0.8-4.5-2.2-6.3l-18.6,18.6H213.5z"/>
		<polygon class="st4" points="222.7,149.2 180.6,149.2 175.9,184 171.8,184 170.4,202.6 		"/>
		<path class="st5" d="M209.1,129.6h-2.6v-7c0-2.2-1.8-4-4-4c-2.2,0-4,1.8-4,4v7h-2.6c-1.1,0-2,0.9-2,2c0,1.1,0.9,2,2,2h13.2
			c1.1,0,2-0.9,2-2C211.1,130.4,210.2,129.6,209.1,129.6z"/>
		<path class="st5" d="M238.2,214.8l-2.2-30c-0.1-1.5-1.3-2.6-2.8-2.6h-1.6L218.2,67.4h4.2c1.5,0,2.8-1.2,2.8-2.8V50.8
			c0-1.5-1.2-2.8-2.8-2.8h-6.4l-0.8-9.7c-0.1-6.1-4.3-11.1-10-12.4V10.8c0-1.5-1.2-2.8-2.8-2.8c-1.5,0-2.8,1.2-2.8,2.8V26
			c-5.7,1.3-10,6.3-10,12.4l-0.8,9.7h-6.4c-1.5,0-2.8,1.2-2.8,2.8v13.8c0,1.5,1.2,2.8,2.8,2.8h4.2l-13.4,114.8h-1.6
			c-1.5,0-2.7,1.1-2.8,2.6l-2.2,30H95.6v8.2h213.8v-8.2H238.2z M195.2,38.7c0-0.1,0-0.1,0-0.2c0-4,3.2-7.2,7.2-7.2
			c4,0,7.2,3.2,7.2,7.2c0,0.1,0,0.1,0,0.2l0.7,9.3h-16L195.2,38.7z M185.3,61.8v-8.2h34.3v8.2H185.3z M188.1,189.4v25.2h-15.7
			l2-26.9h1.5h12.4C188.1,188.3,188.1,188.9,188.1,189.4z M211.3,214.6h-4.8v-25.2c0-2.2-1.8-4-4-4c-2.2,0-4,1.8-4,4v25.2h-4.8
			v-25.2c0-4.9,3.9-8.8,8.8-8.8c4.9,0,8.8,3.9,8.8,8.8V214.6z M202.5,175c-5.3,0-9.9,2.9-12.4,7.2H179l13.4-114.8h20.2L226,182.2
			h-11.1C212.4,177.9,207.8,175,202.5,175z M216.9,214.6v-25.2c0-0.6,0-1.1-0.1-1.6h12.4h1.5l2,26.9H216.9z"/>
	</g>
	<rect x="185.3" y="53.6" class="st0" width="34.3" height="8.2"/>
	<polygon class="st0" points="188.3,102.6 216.7,102.6 222.7,149.2 182.8,149.2 	"/>
</g>
</svg>
