<?xml version="1.0" encoding="utf-8"?>
<!-- Generator: Adobe Illustrator 23.0.5, SVG Export Plug-In . SVG Version: 6.00 Build 0)  -->
<svg version="1.1" id="Capa_1" xmlns="http://www.w3.org/2000/svg" xmlns:xlink="http://www.w3.org/1999/xlink" x="0px" y="0px"
	 viewBox="0 0 200 400" style="enable-background:new 0 0 200 400;" xml:space="preserve">
<style type="text/css">
	.st0{fill:#BF0811;}
	.st1{fill:#CFE6F5;}
	.st2{clip-path:url(#SVGID_4_);fill:#EFEEEE;}
	.st3{clip-path:url(#SVGID_6_);}
	.st4{clip-path:url(#SVGID_8_);fill:#66B3E5;}
	.st5{clip-path:url(#SVGID_10_);fill:#BF0811;}
	.st6{clip-path:url(#SVGID_12_);fill:#BF0811;}
	.st7{clip-path:url(#SVGID_14_);fill:#BF0811;}
	.st8{clip-path:url(#SVGID_15_);fill:#EFEEEE;}
	.st9{clip-path:url(#SVGID_15_);fill:#66B3E5;}
</style>
<circle class="st0" cx="-443.6" cy="112.3" r="40.9"/>
<g>
	<ellipse id="SVGID_1_" class="st1" cx="-443.6" cy="214.3" rx="100" ry="102"/>
</g>
<g>
	<g>
		<defs>
			<ellipse id="SVGID_3_" cx="-443.6" cy="214.3" rx="100" ry="102"/>
		</defs>
		<clipPath id="SVGID_4_">
			<use xlink:href="#SVGID_3_"  style="overflow:visible;"/>
		</clipPath>
		<path class="st2" d="M-395.6,309.5c0,0-30.6,11.7-48,11.7c-17.1,0-47.7-11.1-47.7-11.4c-11.7-10.9-22.3-22.9-31.7-35.7
			c13.4-4.3,27.1-7.4,41.4-9.4c0.6-2.9,0.9-5.7,1.1-8.6c2.6-19.1,4-38.6,4-58.3c0-29.1-2.9-57.4-8.6-84.9
			c12.6-5.4,26.6-8.3,41.4-8.3s28.9,2.9,41.7,8.3c-5.4,27.4-8.6,55.7-8.6,84.9c0,19.7,1.4,39.1,4,58.3c0.3,2.9,0.9,5.7,1.1,8.6
			c14,2,27.7,5.4,41.1,9.4C-373.6,286.9-384.1,298.6-395.6,309.5z"/>
	</g>
</g>
<g>
	<g>
		<defs>
			<ellipse id="SVGID_5_" cx="-443.6" cy="214.3" rx="100" ry="102"/>
		</defs>
		<clipPath id="SVGID_6_">
			<use xlink:href="#SVGID_5_"  style="overflow:visible;"/>
		</clipPath>
		<path class="st3" d="M-443.8,290.3c-2,0-4,0-6,0.3c-1.7,0.3-3.7-0.9-4.3-2.9c-4-11.7-3.1-13.4-3.1-21.1c0-6.9,0.9-13.7,2.9-20
			v-0.3c3.1-10.6,18-10.6,21.1,0v0.3c1.7,6.3,2.9,13.1,2.9,20c0,7.4-1.1,14.6-3.1,21.1c-0.6,1.7-2.3,2.9-4.3,2.9
			C-439.6,290.3-441.8,290.3-443.8,290.3z"/>
	</g>
</g>
<g>
	<g>
		<defs>
			<ellipse id="SVGID_7_" cx="-443.6" cy="214.3" rx="100" ry="102"/>
		</defs>
		<clipPath id="SVGID_8_">
			<use xlink:href="#SVGID_7_"  style="overflow:visible;"/>
		</clipPath>
		<path class="st4" d="M-404,264.8c13.7,2,29.7,5.4,42.8,9.3c-9.4,12.9-22.9,24.6-34.3,35.4c0,0-30.6,11.7-48,11.7
			c-17.1,0-47.7-11.1-47.7-11.4c-11.7-10.9-25.1-22.9-34.6-35.7c13.2-4.2,29.5-7.3,43.7-9.3c0.4-0.1,0.8-0.1,1.2-0.1h74.4
			C-405.7,264.6-404.9,264.6-404,264.8z"/>
	</g>
</g>
<g>
	<g>
		<g>
			<g>
				<defs>
					<polygon id="SVGID_9_" points="-393.8,206 -493,242.9 -493,229.7 -393.8,193.2 					"/>
				</defs>
				<clipPath id="SVGID_10_">
					<use xlink:href="#SVGID_9_"  style="overflow:visible;"/>
				</clipPath>
				<path class="st5" d="M-395.3,309.5c0,0-30.6,11.7-48,11.7c-17.1,0-47.7-11.1-47.7-11.4c-11.7-10.9-22.3-22.9-31.7-35.7
					c13.4-4.3,27.1-7.4,41.4-9.4c0.6-2.9,0.9-5.7,1.1-8.6c2.6-19.1,4-38.6,4-58.3c0-29.1-2.9-57.4-8.6-84.9
					c12.6-5.4,26.6-8.3,41.4-8.3c14.9,0,28.9,2.9,41.7,8.3c-5.4,27.4-8.6,55.7-8.6,84.9c0,19.7,1.4,39.1,4,58.3
					c0.3,2.9,0.9,5.7,1.1,8.6c14,2,27.7,5.4,41.1,9.4C-373.3,286.9-383.8,298.6-395.3,309.5z"/>
			</g>
		</g>
	</g>
	<g>
		<g>
			<g>
				<defs>
					<polygon id="SVGID_11_" points="-393.8,177.5 -493,214.3 -493,201.2 -393.8,164.6 					"/>
				</defs>
				<clipPath id="SVGID_12_">
					<use xlink:href="#SVGID_11_"  style="overflow:visible;"/>
				</clipPath>
				<path class="st6" d="M-395.3,309.5c0,0-30.6,11.7-48,11.7c-17.1,0-47.7-11.1-47.7-11.4c-11.7-10.9-22.3-22.9-31.7-35.7
					c13.4-4.3,27.1-7.4,41.4-9.4c0.6-2.9,0.9-5.7,1.1-8.6c2.6-19.1,4-38.6,4-58.3c0-29.1-2.9-57.4-8.6-84.9
					c12.6-5.4,26.6-8.3,41.4-8.3c14.9,0,28.9,2.9,41.7,8.3c-5.4,27.4-8.6,55.7-8.6,84.9c0,19.7,1.4,39.1,4,58.3
					c0.3,2.9,0.9,5.7,1.1,8.6c14,2,27.7,5.4,41.1,9.4C-373.3,286.9-383.8,298.6-395.3,309.5z"/>
			</g>
		</g>
	</g>
	<g>
		<g>
			<g>
				<defs>
					<polygon id="SVGID_13_" points="-393.8,148.9 -493,185.7 -493,172.6 -393.8,136 					"/>
				</defs>
				<clipPath id="SVGID_14_">
					<use xlink:href="#SVGID_13_"  style="overflow:visible;"/>
				</clipPath>
				<path class="st7" d="M-395.3,309.5c0,0-30.6,11.7-48,11.7c-17.1,0-47.7-11.1-47.7-11.4c-11.7-10.9-22.3-22.9-31.7-35.7
					c13.4-4.3,27.1-7.4,41.4-9.4c0.6-2.9,0.9-5.7,1.1-8.6c2.6-19.1,4-38.6,4-58.3c0-29.1-2.9-57.4-8.6-84.9
					c12.6-5.4,26.6-8.3,41.4-8.3c14.9,0,28.9,2.9,41.7,8.3c-5.4,27.4-8.6,55.7-8.6,84.9c0,19.7,1.4,39.1,4,58.3
					c0.3,2.9,0.9,5.7,1.1,8.6c14,2,27.7,5.4,41.1,9.4C-373.3,286.9-383.8,298.6-395.3,309.5z"/>
			</g>
		</g>
	</g>
</g>
<g>
	<defs>
		<ellipse id="SVGID_2_" cx="100" cy="223" rx="100" ry="102"/>
	</defs>
	<use xlink:href="#SVGID_2_"  style="overflow:visible;fill:#CFE6F5;"/>
	<clipPath id="SVGID_15_">
		<use xlink:href="#SVGID_2_"  style="overflow:visible;"/>
	</clipPath>
	<path class="st8" d="M61.9,269.7c0.6-2.9,11.2-41.9,11.2-61.9c0-29.6-9.7-61.2-15.4-89c12.7-5.5,27.6-8.5,42.6-8.5
		s29.2,2.9,42.1,8.4c-5.5,27.8-14.7,59.6-14.7,89.1c0,20,10.9,62,11.2,64.9C134.7,272.7,65.1,269.7,61.9,269.7z"/>
	<path class="st9" d="M200,272c0-0.1,0-0.3,0-0.4c0,0,0,0,0,0h0c-1.7-6.8-45.8-12.2-99.9-12.2c-54.1,0-98.2,5.4-99.9,12.2h0
		c0,0,0,0,0,0c0,0.1,0,0.3,0,0.4h0.1c0.5,34.9,62.9,54.3,100.1,54.3C137,326.3,199.4,306.9,200,272L200,272z"/>
</g>
<path class="st0" d="M60,129.6c0-22.6,17.5-40.9,40-40.9s40.1,18.3,40.1,40.9l-9.7-2.2c-20.1-4.2-40.8-4.2-60.9,0L60,129.6z"/>
<g>
	<path class="st0" d="M72.7,198.2l-0.6-7.1l16.7-5.8c7-2.5,14.7-2.4,21.8,0l17.9,6.4L128,199l-18-6.4c-6.8-2.4-14.3-2.4-21.1,0
		L72.7,198.2z"/>
</g>
<g>
	<path class="st0" d="M72.2,219.4l0.7-7.6l15.9-5.6c7-2.5,14.7-2.4,21.8,0l17.3,6.4l0.7,7.5l-18.6-6.6c-6.8-2.4-14.3-2.4-21.1,0
		L72.2,219.4z"/>
</g>
<g>
	<path class="st0" d="M70.4,178.1l-1.2-6.9l19.7-6.9c7-2.5,14.7-2.4,21.8,0l20.7,7.3l-0.5,7.4l-20.8-7.4c-6.8-2.4-14.3-2.4-21.1,0
		L70.4,178.1z"/>
</g>
</svg>
