<?xml version="1.0" encoding="utf-8"?>
<!-- Generator: Adobe Illustrator 23.0.5, SVG Export Plug-In . SVG Version: 6.00 Build 0)  -->
<svg version="1.1" id="Capa_1" xmlns="http://www.w3.org/2000/svg" xmlns:xlink="http://www.w3.org/1999/xlink" x="0px" y="0px"
	 viewBox="0 0 200 400" style="enable-background:new 0 0 200 400;" xml:space="preserve">
<style type="text/css">
	.st0{fill:#BF0811;}
	.st1{clip-path:url(#SVGID_3_);fill:#EFEEEE;}
	.st2{clip-path:url(#SVGID_5_);}
	.st3{clip-path:url(#SVGID_7_);fill:#66B3E5;}
	.st4{clip-path:url(#SVGID_9_);fill:#BF0811;}
	.st5{clip-path:url(#SVGID_11_);fill:#BF0811;}
	.st6{clip-path:url(#SVGID_13_);fill:#BF0811;}
	.st7{fill:#CFE6F5;}
	.st8{clip-path:url(#SVGID_15_);fill:#EFEEEE;}
	.st9{clip-path:url(#SVGID_17_);}
	.st10{clip-path:url(#SVGID_19_);fill:#66B3E5;}
	.st11{clip-path:url(#SVGID_21_);fill:#BF0811;}
	.st12{clip-path:url(#SVGID_23_);fill:#BF0811;}
	.st13{clip-path:url(#SVGID_25_);fill:#BF0811;}
</style>
<g>
	<circle class="st0" cx="100" cy="96.3" r="51.9"/>
	<g>
		<g>
			<g>
				<defs>
					<ellipse id="SVGID_2_" cx="100" cy="226" rx="127.1" ry="129.6"/>
				</defs>
				<clipPath id="SVGID_3_">
					<use xlink:href="#SVGID_2_"  style="overflow:visible;"/>
				</clipPath>
				<path class="st1" d="M161.2,346.9c0,0-38.7,14.9-60.7,14.9c-21.7,0-60.4-14.2-60.4-14.5C25.3,333.5,11.9,318.2,0,301.9
					c17-5.4,34.3-9.4,52.4-12c0.7-3.6,1.1-7.3,1.4-10.9c3.3-24.3,5.1-49,5.1-74.1c0-37-4.6-72.9-11.8-107.7
					c15.9-6.9,34.6-10.7,53.4-10.7s36.5,3.6,52.8,10.5c-6.9,34.9-10.8,70.8-10.8,107.9c0,25.1,1.8,49.7,5.1,74.1
					c0.4,3.6,1.1,7.3,1.4,10.9c17.7,2.5,35.1,6.9,52,12C189,318.2,175.7,333.1,161.2,346.9z"/>
			</g>
		</g>
		<g>
			<g>
				<defs>
					<ellipse id="SVGID_4_" cx="100" cy="226" rx="127.1" ry="129.6"/>
				</defs>
				<clipPath id="SVGID_5_">
					<use xlink:href="#SVGID_4_"  style="overflow:visible;"/>
				</clipPath>
				<path class="st2" d="M99.6,322.6c-2.5,0-5.1,0-7.6,0.4c-2.2,0.4-4.7-1.1-5.4-3.6c-5.1-14.9-4-17.1-4-26.9
					c0-8.7,1.1-17.4,3.6-25.4v-0.4c4-13.4,22.9-13.4,26.9,0v0.4c2.2,8,3.6,16.7,3.6,25.4c0,9.4-1.5,18.5-4,26.9
					c-0.7,2.2-2.9,3.6-5.4,3.6C105.1,322.6,102.2,322.6,99.6,322.6z"/>
			</g>
		</g>
		<g>
			<g>
				<defs>
					<ellipse id="SVGID_6_" cx="100" cy="226" rx="127.1" ry="129.6"/>
				</defs>
				<clipPath id="SVGID_7_">
					<use xlink:href="#SVGID_6_"  style="overflow:visible;"/>
				</clipPath>
				<path class="st3" d="M148.7,289.9c17.8,2.5,35.2,6.9,52.3,12c-12,16.3-25.4,31.2-39.9,45c0,0-38.9,14.9-61,14.9
					c-21.8,0-60.6-14.2-60.6-14.5C24.5,333.5,11,318.2-1,301.9c17.1-5.4,34.5-9.4,52.7-12H148.7z"/>
			</g>
		</g>
	</g>
	<g>
		<g>
			<g>
				<g>
					<defs>
						<polygon id="SVGID_8_" points="163.2,215.4 37.2,262.3 37.2,245.6 163.2,199.1 						"/>
					</defs>
					<clipPath id="SVGID_9_">
						<use xlink:href="#SVGID_8_"  style="overflow:visible;"/>
					</clipPath>
					<path class="st4" d="M161.4,346.9c0,0-38.9,14.9-61,14.9c-21.8,0-60.6-14.2-60.6-14.5c-14.9-13.8-28.3-29.1-40.3-45.4
						c17.1-5.4,34.5-9.4,52.7-12c0.7-3.6,1.1-7.3,1.5-10.9c3.3-24.3,5.1-49,5.1-74.1c0-37-3.6-73-10.9-107.9
						c16-6.9,33.8-10.5,52.7-10.5s36.7,3.6,53,10.5c-6.9,34.9-10.9,70.8-10.9,107.9c0,25.1,1.8,49.7,5.1,74.1
						c0.4,3.6,1.1,7.3,1.5,10.9c17.8,2.5,35.2,6.9,52.3,12C189.3,318.2,175.9,333.1,161.4,346.9z"/>
				</g>
			</g>
		</g>
		<g>
			<g>
				<g>
					<defs>
						<polygon id="SVGID_10_" points="163.2,179.1 37.2,226 37.2,209.3 163.2,162.8 						"/>
					</defs>
					<clipPath id="SVGID_11_">
						<use xlink:href="#SVGID_10_"  style="overflow:visible;"/>
					</clipPath>
					<path class="st5" d="M161.4,346.9c0,0-38.9,14.9-61,14.9c-21.8,0-60.6-14.2-60.6-14.5c-14.9-13.8-28.3-29.1-40.3-45.4
						c17.1-5.4,34.5-9.4,52.7-12c0.7-3.6,1.1-7.3,1.5-10.9c3.3-24.3,5.1-49,5.1-74.1c0-37-3.6-73-10.9-107.9
						c16-6.9,33.8-10.5,52.7-10.5s36.7,3.6,53,10.5c-6.9,34.9-10.9,70.8-10.9,107.9c0,25.1,1.8,49.7,5.1,74.1
						c0.4,3.6,1.1,7.3,1.5,10.9c17.8,2.5,35.2,6.9,52.3,12C189.3,318.2,175.9,333.1,161.4,346.9z"/>
				</g>
			</g>
		</g>
		<g>
			<g>
				<g>
					<defs>
						<path id="SVGID_12_" d="M163.2,142.8L57.3,182.2c0,0-5.5-14.6-0.1-16.7c26.3-10.4,106-39.1,106-39.1V142.8z"/>
					</defs>
					<clipPath id="SVGID_13_">
						<use xlink:href="#SVGID_12_"  style="overflow:visible;"/>
					</clipPath>
					<path class="st6" d="M161.4,346.9c0,0-38.9,14.9-61,14.9c-21.8,0-60.6-14.2-60.6-14.5c-14.9-13.8-28.3-29.1-40.3-45.4
						c17.1-5.4,34.5-9.4,52.7-12c0.7-3.6,1.1-7.3,1.5-10.9c3.3-24.3,5.1-49,5.1-74.1c0-37-3.6-73-10.9-107.9
						c16-6.9,33.8-10.5,52.7-10.5s36.7,3.6,53,10.5c-6.9,34.9-10.9,70.8-10.9,107.9c0,25.1,1.8,49.7,5.1,74.1
						c0.4,3.6,1.1,7.3,1.5,10.9c17.8,2.5,35.2,6.9,52.3,12C189.3,318.2,175.9,333.1,161.4,346.9z"/>
				</g>
			</g>
		</g>
	</g>
</g>
</svg>
