<?xml version="1.0" encoding="utf-8"?>
<!-- Generator: Adobe Illustrator 23.0.5, SVG Export Plug-In . SVG Version: 6.00 Build 0)  -->
<svg version="1.1" id="Capa_1" xmlns="http://www.w3.org/2000/svg" xmlns:xlink="http://www.w3.org/1999/xlink" x="0px" y="0px"
	 viewBox="0 0 214.8 98.3" style="enable-background:new 0 0 214.8 98.3;" xml:space="preserve">
<style type="text/css">
	.st0{fill:#BF0811;}
	.st1{fill:#CFE6F5;}
	.st2{clip-path:url(#SVGID_2_);fill:#EFEEEE;}
	.st3{clip-path:url(#SVGID_4_);}
	.st4{clip-path:url(#SVGID_6_);fill:#66B3E5;}
	.st5{clip-path:url(#SVGID_8_);fill:#BF0811;}
	.st6{clip-path:url(#SVGID_11_);fill:#BF0811;}
	.st7{clip-path:url(#SVGID_13_);fill:#BF0811;}
</style>
<g>
	<path d="M97.1,33.1h14v5.3h-8.5V48h8.1v5.3h-8.1v16.6H97L97.1,33.1L97.1,33.1z"/>
	<path d="M128.5,64c0,1.8,0,4.7,0.1,5.8h-5.1c-0.1-0.5-0.3-1.7-0.4-2.1c-1,1.7-2.5,2.5-4.6,2.5c-4.2,0-5.9-4-5.9-8.3v-0.5
		c0-7,4.6-8.9,9.7-8.9c0.2,0,0.4,0,0.6,0V49c0-2.2-0.3-3.5-2-3.5c-1.6,0-2,1.3-2,3.1v0.5h-5.5v-0.4c0-4.1,1.6-7.8,7.7-7.8
		c5.4,0,7.3,3,7.3,7.6V64H128.5z M123.1,57c-0.2,0-0.8,0-0.9,0c-2.5,0-4.2,1-4.2,4.5v0.4c0,2,0.7,3.4,2.4,3.4c1.9,0,2.7-1.3,2.7-5.1
		V57z"/>
	<path d="M133.2,51c0-4.7,0-6.7-0.1-9.6h5.3c0.1,0.5,0.2,3.1,0.2,4.6c1.1-3.8,3.6-5,6.1-5v7c-3.2,0-6,0.8-6,6.7v15.2h-5.6V51H133.2z
		"/>
	<path d="M163.3,50.1V61c0,6.1-3,9.2-8.2,9.2c-5.4,0-8.1-3.2-8.1-9.2V49.9c0-6.2,3.4-8.9,8.3-8.9C160.3,41,163.3,44.1,163.3,50.1z
		 M152.5,49.8v11.5c0,2.3,0.7,4,2.7,4c1.9,0,2.6-1.4,2.6-4.1V49.8c0-2.2-0.6-3.8-2.6-3.8C153.3,46,152.5,47.3,152.5,49.8z"/>
	<path d="M182.6,69.9V61h-9.9v-4.2l7.5-22.6h7.4v22.2h2.6l-0.4,4.6h-2.2v8.9C187.6,69.9,182.6,69.9,182.6,69.9z M182.6,50
		c0-3.6,0.1-7.2,0.2-10.8h-0.1c-1.5,5.9-3.1,11.3-4.8,17.1h4.6V50H182.6z"/>
	<path d="M192,69.9v-0.7c0-6.8,2.7-11.2,6.2-16.3c2.9-4.2,3.9-5.5,3.9-9.4c0-3.6-0.4-5-2.4-5c-1.8,0-2.5,1.4-2.5,4.2v1.9h-5.1v-2
		c0-4.1,1.3-8.8,7.9-8.8c6,0,7.7,3.8,7.7,9.4c0,5.7-1.8,8.1-4.7,12.1c-2.5,3.4-4.5,6.9-4.8,9.8h10.2l-0.8,4.9H192V69.9z"/>
</g>
<circle class="st0" cx="43.1" cy="19.5" r="14.3"/>
<g>
	<g>
		<ellipse id="SVGID_9_" class="st1" cx="43.1" cy="55.2" rx="35" ry="35.7"/>
	</g>
	<g>
		<defs>
			<ellipse id="SVGID_1_" cx="43.1" cy="55.2" rx="35" ry="35.7"/>
		</defs>
		<clipPath id="SVGID_2_">
			<use xlink:href="#SVGID_1_"  style="overflow:visible;"/>
		</clipPath>
		<path class="st2" d="M59.9,88.5c0,0-10.7,4.1-16.8,4.1c-6,0-16.7-3.9-16.7-4c-4.1-3.8-7.8-8-11.1-12.5c4.7-1.5,9.5-2.6,14.5-3.3
			c0.2-1,0.3-2,0.4-3c0.9-6.7,1.4-13.5,1.4-20.4c0-10.2-1-20.1-3-29.7c4.4-1.9,9.3-2.9,14.5-2.9s10.1,1,14.6,2.9
			c-1.9,9.6-3,19.5-3,29.7c0,6.9,0.5,13.7,1.4,20.4c0.1,1,0.3,2,0.4,3c4.9,0.7,9.7,1.9,14.4,3.3C67.6,80.6,63.9,84.7,59.9,88.5z"/>
	</g>
	<g>
		<defs>
			<ellipse id="SVGID_3_" cx="43.1" cy="55.2" rx="35" ry="35.7"/>
		</defs>
		<clipPath id="SVGID_4_">
			<use xlink:href="#SVGID_3_"  style="overflow:visible;"/>
		</clipPath>
		<path class="st3" d="M43,81.8c-0.7,0-1.4,0-2.1,0.1c-0.6,0.1-1.3-0.3-1.5-1c-1.4-4.1-1.1-4.7-1.1-7.4c0-2.4,0.3-4.8,1-7v-0.1
			c1.1-3.7,6.3-3.7,7.4,0v0.1c0.6,2.2,1,4.6,1,7c0,2.6-0.4,5.1-1.1,7.4c-0.2,0.6-0.8,1-1.5,1C44.5,81.8,43.7,81.8,43,81.8z"/>
	</g>
	<g>
		<defs>
			<ellipse id="SVGID_5_" cx="43.1" cy="55.2" rx="35" ry="35.7"/>
		</defs>
		<clipPath id="SVGID_6_">
			<use xlink:href="#SVGID_5_"  style="overflow:visible;"/>
		</clipPath>
		<path class="st4" d="M56.5,72.8c4.9,0.7,9.7,1.9,14.4,3.3c-3.3,4.5-7,8.6-11,12.4c0,0-10.7,4.1-16.8,4.1c-6,0-16.7-3.9-16.7-4
			c-4.1-3.8-7.8-8-11.1-12.5c4.7-1.5,9.5-2.6,14.5-3.3H56.5z"/>
	</g>
</g>
<g>
	<g>
		<g>
			<defs>
				<polygon id="SVGID_7_" points="60.4,52.3 25.7,65.2 25.7,60.6 60.4,47.8 				"/>
			</defs>
			<clipPath id="SVGID_8_">
				<use xlink:href="#SVGID_7_"  style="overflow:visible;"/>
			</clipPath>
			<path class="st5" d="M59.9,88.5c0,0-10.7,4.1-16.8,4.1c-6,0-16.7-3.9-16.7-4c-4.1-3.8-7.8-8-11.1-12.5c4.7-1.5,9.5-2.6,14.5-3.3
				c0.2-1,0.3-2,0.4-3c0.9-6.7,1.4-13.5,1.4-20.4c0-10.2-1-20.1-3-29.7c4.4-1.9,9.3-2.9,14.5-2.9s10.1,1,14.6,2.9
				c-1.9,9.6-3,19.5-3,29.7c0,6.9,0.5,13.7,1.4,20.4c0.1,1,0.3,2,0.4,3c4.9,0.7,9.7,1.9,14.4,3.3C67.6,80.6,63.9,84.7,59.9,88.5z"/>
		</g>
	</g>
	<g>
		<g>
			<defs>
				<polygon id="SVGID_10_" points="60.4,42.3 25.7,55.2 25.7,50.6 60.4,37.8 				"/>
			</defs>
			<clipPath id="SVGID_11_">
				<use xlink:href="#SVGID_10_"  style="overflow:visible;"/>
			</clipPath>
			<path class="st6" d="M59.9,88.5c0,0-10.7,4.1-16.8,4.1c-6,0-16.7-3.9-16.7-4c-4.1-3.8-7.8-8-11.1-12.5c4.7-1.5,9.5-2.6,14.5-3.3
				c0.2-1,0.3-2,0.4-3c0.9-6.7,1.4-13.5,1.4-20.4c0-10.2-1-20.1-3-29.7c4.4-1.9,9.3-2.9,14.5-2.9s10.1,1,14.6,2.9
				c-1.9,9.6-3,19.5-3,29.7c0,6.9,0.5,13.7,1.4,20.4c0.1,1,0.3,2,0.4,3c4.9,0.7,9.7,1.9,14.4,3.3C67.6,80.6,63.9,84.7,59.9,88.5z"/>
		</g>
	</g>
	<g>
		<g>
			<defs>
				<polygon id="SVGID_12_" points="60.4,32.3 25.7,45.2 25.7,40.6 60.4,27.8 				"/>
			</defs>
			<clipPath id="SVGID_13_">
				<use xlink:href="#SVGID_12_"  style="overflow:visible;"/>
			</clipPath>
			<path class="st7" d="M59.9,88.5c0,0-10.7,4.1-16.8,4.1c-6,0-16.7-3.9-16.7-4c-4.1-3.8-7.8-8-11.1-12.5c4.7-1.5,9.5-2.6,14.5-3.3
				c0.2-1,0.3-2,0.4-3c0.9-6.7,1.4-13.5,1.4-20.4c0-10.2-1-20.1-3-29.7c4.4-1.9,9.3-2.9,14.5-2.9s10.1,1,14.6,2.9
				c-1.9,9.6-3,19.5-3,29.7c0,6.9,0.5,13.7,1.4,20.4c0.1,1,0.3,2,0.4,3c4.9,0.7,9.7,1.9,14.4,3.3C67.6,80.6,63.9,84.7,59.9,88.5z"/>
		</g>
	</g>
</g>
</svg>
