<?xml version="1.0" encoding="utf-8"?>
<!-- Generator: Adobe Illustrator 23.0.5, SVG Export Plug-In . SVG Version: 6.00 Build 0)  -->
<svg version="1.1" id="Capa_1" xmlns="http://www.w3.org/2000/svg" xmlns:xlink="http://www.w3.org/1999/xlink" x="0px" y="0px"
	 viewBox="0 0 225.2 400" style="enable-background:new 0 0 225.2 400;" xml:space="preserve">
<style type="text/css">
	.st0{fill:#FFFFFF;}
	.st1{fill:#BF0811;}
	.st2{fill:#CFE6F5;}
	.st3{clip-path:url(#SVGID_4_);fill:#EFEEEE;}
	.st4{clip-path:url(#SVGID_6_);}
	.st5{clip-path:url(#SVGID_8_);fill:#66B3E5;}
	.st6{clip-path:url(#SVGID_10_);fill:#BF0811;}
	.st7{clip-path:url(#SVGID_12_);fill:#BF0811;}
	.st8{clip-path:url(#SVGID_14_);fill:#BF0811;}
	.st9{clip-path:url(#SVGID_16_);fill:#EFEEEE;}
	.st10{clip-path:url(#SVGID_18_);fill:#66B3E5;}
</style>
<rect x="12.6" class="st0" width="200" height="400"/>
<circle class="st1" cx="-431" cy="112.3" r="40.9"/>
<g>
	<ellipse id="SVGID_1_" class="st2" cx="-431" cy="214.3" rx="100" ry="102"/>
</g>
<g>
	<g>
		<g>
			<defs>
				<ellipse id="SVGID_3_" cx="-431" cy="214.3" rx="100" ry="102"/>
			</defs>
			<clipPath id="SVGID_4_">
				<use xlink:href="#SVGID_3_"  style="overflow:visible;"/>
			</clipPath>
			<path class="st3" d="M-383,309.5c0,0-30.6,11.7-48,11.7c-17.1,0-47.7-11.1-47.7-11.4c-11.7-10.9-22.3-22.9-31.7-35.7
				c13.4-4.3,27.1-7.4,41.4-9.4c0.6-2.9,0.9-5.7,1.1-8.6c2.6-19.1,4-38.6,4-58.3c0-29.1-2.9-57.4-8.6-84.9
				c12.6-5.4,26.6-8.3,41.4-8.3s28.9,2.9,41.7,8.3c-5.4,27.4-8.6,55.7-8.6,84.9c0,19.7,1.4,39.1,4,58.3c0.3,2.9,0.9,5.7,1.1,8.6
				c14,2,27.7,5.4,41.1,9.4C-361,286.9-371.5,298.6-383,309.5z"/>
		</g>
	</g>
</g>
<g>
	<g>
		<g>
			<defs>
				<ellipse id="SVGID_5_" cx="-431" cy="214.3" rx="100" ry="102"/>
			</defs>
			<clipPath id="SVGID_6_">
				<use xlink:href="#SVGID_5_"  style="overflow:visible;"/>
			</clipPath>
			<path class="st4" d="M-431.2,290.3c-2,0-4,0-6,0.3c-1.7,0.3-3.7-0.9-4.3-2.9c-4-11.7-3.1-13.4-3.1-21.1c0-6.9,0.9-13.7,2.9-20
				v-0.3c3.1-10.6,18-10.6,21.1,0v0.3c1.7,6.3,2.9,13.1,2.9,20c0,7.4-1.1,14.6-3.1,21.1c-0.6,1.7-2.3,2.9-4.3,2.9
				C-427,290.3-429.2,290.3-431.2,290.3z"/>
		</g>
	</g>
</g>
<g>
	<g>
		<g>
			<defs>
				<ellipse id="SVGID_7_" cx="-431" cy="214.3" rx="100" ry="102"/>
			</defs>
			<clipPath id="SVGID_8_">
				<use xlink:href="#SVGID_7_"  style="overflow:visible;"/>
			</clipPath>
			<path class="st5" d="M-391.4,264.8c13.7,2,29.7,5.4,42.8,9.3c-9.4,12.9-22.9,24.6-34.3,35.4c0,0-30.6,11.7-48,11.7
				c-17.1,0-47.7-11.1-47.7-11.4c-11.7-10.9-25.1-22.9-34.6-35.7c13.2-4.2,29.5-7.3,43.7-9.3c0.4-0.1,0.8-0.1,1.2-0.1h74.4
				C-393.1,264.6-392.3,264.6-391.4,264.8z"/>
		</g>
	</g>
</g>
<g>
	<g>
		<g>
			<g>
				<g>
					<defs>
						<polygon id="SVGID_9_" points="-381.2,206 -480.4,242.9 -480.4,229.7 -381.2,193.2 						"/>
					</defs>
					<clipPath id="SVGID_10_">
						<use xlink:href="#SVGID_9_"  style="overflow:visible;"/>
					</clipPath>
					<path class="st6" d="M-382.7,309.5c0,0-30.6,11.7-48,11.7c-17.1,0-47.7-11.1-47.7-11.4c-11.7-10.9-22.3-22.9-31.7-35.7
						c13.4-4.3,27.1-7.4,41.4-9.4c0.6-2.9,0.9-5.7,1.1-8.6c2.6-19.1,4-38.6,4-58.3c0-29.1-2.9-57.4-8.6-84.9
						c12.6-5.4,26.6-8.3,41.4-8.3c14.9,0,28.9,2.9,41.7,8.3c-5.4,27.4-8.6,55.7-8.6,84.9c0,19.7,1.4,39.1,4,58.3
						c0.3,2.9,0.9,5.7,1.1,8.6c14,2,27.7,5.4,41.1,9.4C-360.7,286.9-371.2,298.6-382.7,309.5z"/>
				</g>
			</g>
		</g>
	</g>
	<g>
		<g>
			<g>
				<g>
					<defs>
						<polygon id="SVGID_11_" points="-381.2,177.5 -480.4,214.3 -480.4,201.2 -381.2,164.6 						"/>
					</defs>
					<clipPath id="SVGID_12_">
						<use xlink:href="#SVGID_11_"  style="overflow:visible;"/>
					</clipPath>
					<path class="st7" d="M-382.7,309.5c0,0-30.6,11.7-48,11.7c-17.1,0-47.7-11.1-47.7-11.4c-11.7-10.9-22.3-22.9-31.7-35.7
						c13.4-4.3,27.1-7.4,41.4-9.4c0.6-2.9,0.9-5.7,1.1-8.6c2.6-19.1,4-38.6,4-58.3c0-29.1-2.9-57.4-8.6-84.9
						c12.6-5.4,26.6-8.3,41.4-8.3c14.9,0,28.9,2.9,41.7,8.3c-5.4,27.4-8.6,55.7-8.6,84.9c0,19.7,1.4,39.1,4,58.3
						c0.3,2.9,0.9,5.7,1.1,8.6c14,2,27.7,5.4,41.1,9.4C-360.7,286.9-371.2,298.6-382.7,309.5z"/>
				</g>
			</g>
		</g>
	</g>
	<g>
		<g>
			<g>
				<g>
					<defs>
						<polygon id="SVGID_13_" points="-381.2,148.9 -480.4,185.7 -480.4,172.6 -381.2,136 						"/>
					</defs>
					<clipPath id="SVGID_14_">
						<use xlink:href="#SVGID_13_"  style="overflow:visible;"/>
					</clipPath>
					<path class="st8" d="M-382.7,309.5c0,0-30.6,11.7-48,11.7c-17.1,0-47.7-11.1-47.7-11.4c-11.7-10.9-22.3-22.9-31.7-35.7
						c13.4-4.3,27.1-7.4,41.4-9.4c0.6-2.9,0.9-5.7,1.1-8.6c2.6-19.1,4-38.6,4-58.3c0-29.1-2.9-57.4-8.6-84.9
						c12.6-5.4,26.6-8.3,41.4-8.3c14.9,0,28.9,2.9,41.7,8.3c-5.4,27.4-8.6,55.7-8.6,84.9c0,19.7,1.4,39.1,4,58.3
						c0.3,2.9,0.9,5.7,1.1,8.6c14,2,27.7,5.4,41.1,9.4C-360.7,286.9-371.2,298.6-382.7,309.5z"/>
				</g>
			</g>
		</g>
	</g>
</g>
<g>
	<g>
		<ellipse id="SVGID_2_" class="st2" cx="112.6" cy="223" rx="100" ry="102"/>
	</g>
	<g>
		<defs>
			<ellipse id="SVGID_15_" cx="112.6" cy="223" rx="100" ry="102"/>
		</defs>
		<clipPath id="SVGID_16_">
			<use xlink:href="#SVGID_15_"  style="overflow:visible;"/>
		</clipPath>
		<path class="st9" d="M74.5,269.7c0.6-2.9,11.2-41.9,11.2-61.9c0-29.6-9.7-61.2-15.4-89c12.7-5.5,27.6-8.5,42.6-8.5
			s29.2,2.9,42.1,8.4c-5.5,27.8-14.7,59.6-14.7,89.1c0,20,10.9,62,11.2,64.9C147.3,272.7,77.7,269.7,74.5,269.7z"/>
	</g>
	<g>
		<defs>
			<ellipse id="SVGID_17_" cx="112.6" cy="223" rx="100" ry="102"/>
		</defs>
		<clipPath id="SVGID_18_">
			<use xlink:href="#SVGID_17_"  style="overflow:visible;"/>
		</clipPath>
		<path class="st10" d="M212.6,272c0-0.1,0-0.3,0-0.4l0,0l0,0c-1.7-6.8-45.8-12.2-99.9-12.2s-98.2,5.4-99.9,12.2l0,0l0,0
			c0,0.1,0,0.3,0,0.4h0.1c0.5,34.9,62.9,54.3,100.1,54.3C149.6,326.3,212,306.9,212.6,272L212.6,272z"/>
	</g>
</g>
<path class="st1" d="M72.6,129.6c0-22.6,17.5-40.9,40-40.9s40.1,18.3,40.1,40.9l-9.7-2.2c-20.1-4.2-40.8-4.2-60.9,0L72.6,129.6z"/>
<g>
	<path class="st1" d="M85.3,198.2l-0.6-7.1l16.7-5.8c7-2.5,14.7-2.4,21.8,0l17.9,6.4l-0.5,7.3l-18-6.4c-6.8-2.4-14.3-2.4-21.1,0
		L85.3,198.2z"/>
</g>
<g>
	<path class="st1" d="M84.8,219.4l0.7-7.6l15.9-5.6c7-2.5,14.7-2.4,21.8,0l17.3,6.4l0.7,7.5l-18.6-6.6c-6.8-2.4-14.3-2.4-21.1,0
		L84.8,219.4z"/>
</g>
<g>
	<path class="st1" d="M83,178.1l-1.2-6.9l19.7-6.9c7-2.5,14.7-2.4,21.8,0l20.7,7.3l-0.5,7.4l-20.8-7.4c-6.8-2.4-14.3-2.4-21.1,0
		L83,178.1z"/>
</g>
<g>
	<path class="st0" d="M41.4,334.7h18.5v7H48.6v12.7h10.7v7H48.6v21.9h-7.4L41.4,334.7L41.4,334.7z"/>
	<path class="st0" d="M82.8,375.4c0,2.4,0,6.2,0.1,7.6h-6.7c-0.1-0.7-0.4-2.2-0.5-2.8c-1.3,2.2-3.3,3.3-6.1,3.3
		c-5.5,0-7.8-5.3-7.8-10.9V372c0-9.2,6.1-11.7,12.8-11.7c0.3,0,0.5,0,0.8,0v-4.6c0-2.9-0.4-4.6-2.6-4.6c-2.1,0-2.6,1.7-2.6,4.1v0.7
		h-7.3v-0.5c0-5.4,2.1-10.3,10.2-10.3c7.1,0,9.6,4,9.6,10v20.4H82.8z M75.7,366.2c-0.3,0-1.1,0-1.2,0c-3.3,0-5.5,1.3-5.5,5.9v0.5
		c0,2.6,0.9,4.5,3.2,4.5c2.5,0,3.6-1.7,3.6-6.7V366.2z"/>
	<path class="st0" d="M89,358.3c0-6.2,0-8.8-0.1-12.7h7c0.1,0.7,0.3,4.1,0.3,6.1c1.5-5,4.7-6.6,8-6.6v9.2c-4.2,0-7.9,1.1-7.9,8.8v20
		h-7.4v-24.9H89z"/>
	<path class="st0" d="M128.7,357.1v14.4c0,8-4,12.1-10.8,12.1c-7.1,0-10.7-4.2-10.7-12.1v-14.6c0-8.2,4.5-11.7,10.9-11.7
		C124.7,345.1,128.7,349.2,128.7,357.1z M114.4,356.7v15.2c0,3,0.9,5.3,3.6,5.3c2.5,0,3.4-1.8,3.4-5.4v-15c0-2.9-0.8-5-3.4-5
		C115.5,351.7,114.4,353.4,114.4,356.7z"/>
	<path class="st0" d="M154.1,383.2v-11.7h-13.1v-5.5l9.9-29.8h9.8v29.3h3.4l-0.5,6.1h-2.9v11.7C160.7,383.2,154.1,383.2,154.1,383.2
		z M154.1,357c0-4.7,0.1-9.5,0.3-14.2h-0.1c-2,7.8-4.1,14.9-6.3,22.6h6.1V357H154.1z"/>
	<path class="st0" d="M166.5,383.2v-0.9c0-9,3.6-14.8,8.2-21.5c3.8-5.5,5.1-7.3,5.1-12.4c0-4.7-0.5-6.6-3.2-6.6
		c-2.4,0-3.3,1.8-3.3,5.5v2.5h-6.7v-2.6c0-5.4,1.7-11.6,10.4-11.6c7.9,0,10.2,5,10.2,12.4c0,7.5-2.4,10.7-6.2,16
		c-3.3,4.5-5.9,9.1-6.3,12.9h13.5l-1.1,6.5h-20.6V383.2z"/>
</g>
</svg>
