<?xml version="1.0" encoding="utf-8"?>
<!-- Generator: Adobe Illustrator 23.0.5, SVG Export Plug-In . SVG Version: 6.00 Build 0)  -->
<svg version="1.1" id="Capa_1" xmlns="http://www.w3.org/2000/svg" xmlns:xlink="http://www.w3.org/1999/xlink" x="0px" y="0px"
	 viewBox="0 0 82.3 98.3" style="enable-background:new 0 0 82.3 98.3;" xml:space="preserve">
<style type="text/css">
	.st0{fill:#BF0811;}
	.st1{clip-path:url(#SVGID_3_);fill:#EFEEEE;}
	.st2{clip-path:url(#SVGID_5_);}
	.st3{clip-path:url(#SVGID_7_);fill:#66B3E5;}
	.st4{clip-path:url(#SVGID_9_);fill:#BF0811;}
	.st5{clip-path:url(#SVGID_11_);fill:#BF0811;}
	.st6{clip-path:url(#SVGID_13_);fill:#BF0811;}
	.st7{fill:#CFE6F5;}
	.st8{clip-path:url(#SVGID_15_);fill:#EFEEEE;}
	.st9{clip-path:url(#SVGID_17_);}
	.st10{clip-path:url(#SVGID_19_);fill:#66B3E5;}
	.st11{clip-path:url(#SVGID_21_);fill:#BF0811;}
	.st12{clip-path:url(#SVGID_23_);fill:#BF0811;}
	.st13{clip-path:url(#SVGID_25_);fill:#BF0811;}
</style>
<g>
	<circle class="st0" cx="41.1" cy="19.5" r="14.3"/>
	<g>
		<g>
			<ellipse id="SVGID_1_" class="st7" cx="41.1" cy="55.2" rx="35" ry="35.7"/>
		</g>
		<g>
			<g>
				<defs>
					<ellipse id="SVGID_14_" cx="41.1" cy="55.2" rx="35" ry="35.7"/>
				</defs>
				<clipPath id="SVGID_3_">
					<use xlink:href="#SVGID_14_"  style="overflow:visible;"/>
				</clipPath>
				<path class="st1" d="M57.9,88.5c0,0-10.7,4.1-16.8,4.1c-6,0-16.7-3.9-16.7-4c-4.1-3.8-7.8-8-11.1-12.5c4.7-1.5,9.5-2.6,14.5-3.3
					c0.2-1,0.3-2,0.4-3c0.9-6.7,1.4-13.5,1.4-20.4c0-10.2-1-20.1-3-29.7c4.4-1.9,9.3-2.9,14.5-2.9s10.1,1,14.6,2.9
					c-1.9,9.6-3,19.5-3,29.7c0,6.9,0.5,13.7,1.4,20.4c0.1,1,0.3,2,0.4,3c4.9,0.7,9.7,1.9,14.4,3.3C65.6,80.6,61.9,84.7,57.9,88.5z"
					/>
			</g>
		</g>
		<g>
			<g>
				<defs>
					<ellipse id="SVGID_16_" cx="41.1" cy="55.2" rx="35" ry="35.7"/>
				</defs>
				<clipPath id="SVGID_5_">
					<use xlink:href="#SVGID_16_"  style="overflow:visible;"/>
				</clipPath>
				<path class="st2" d="M41,81.8c-0.7,0-1.4,0-2.1,0.1c-0.6,0.1-1.3-0.3-1.5-1c-1.4-4.1-1.1-4.7-1.1-7.4c0-2.4,0.3-4.8,1-7v-0.1
					c1.1-3.7,6.3-3.7,7.4,0v0.1c0.6,2.2,1,4.6,1,7c0,2.6-0.4,5.1-1.1,7.4c-0.2,0.6-0.8,1-1.5,1C42.5,81.8,41.7,81.8,41,81.8z"/>
			</g>
		</g>
		<g>
			<g>
				<defs>
					<ellipse id="SVGID_18_" cx="41.1" cy="55.2" rx="35" ry="35.7"/>
				</defs>
				<clipPath id="SVGID_7_">
					<use xlink:href="#SVGID_18_"  style="overflow:visible;"/>
				</clipPath>
				<path class="st3" d="M54.9,72.9c4.8,0.7,10.4,1.9,15,3.2c-3.3,4.5-8,8.6-12,12.4c0,0-10.7,4.1-16.8,4.1c-6,0-16.7-3.9-16.7-4
					c-4.1-3.8-8.8-8-12.1-12.5c4.6-1.5,10.3-2.6,15.3-3.3c0.1,0,0.3,0,0.4,0h26C54.4,72.8,54.6,72.8,54.9,72.9z"/>
			</g>
		</g>
	</g>
	<g>
		<g>
			<g>
				<g>
					<defs>
						<polygon id="SVGID_20_" points="58.5,52.3 23.8,65.2 23.8,60.6 58.5,47.8 						"/>
					</defs>
					<clipPath id="SVGID_9_">
						<use xlink:href="#SVGID_20_"  style="overflow:visible;"/>
					</clipPath>
					<path class="st4" d="M58,88.5c0,0-10.7,4.1-16.8,4.1c-6,0-16.7-3.9-16.7-4c-4.1-3.8-7.8-8-11.1-12.5c4.7-1.5,9.5-2.6,14.5-3.3
						c0.2-1,0.3-2,0.4-3c0.9-6.7,1.4-13.5,1.4-20.4c0-10.2-1-20.1-3-29.7c4.4-1.9,9.3-2.9,14.5-2.9s10.1,1,14.6,2.9
						c-1.9,9.6-3,19.5-3,29.7c0,6.9,0.5,13.7,1.4,20.4c0.1,1,0.3,2,0.4,3c4.9,0.7,9.7,1.9,14.4,3.3C65.7,80.6,62,84.7,58,88.5z"/>
				</g>
			</g>
		</g>
		<g>
			<g>
				<g>
					<defs>
						<polygon id="SVGID_22_" points="58.5,42.3 23.8,55.2 23.8,50.6 58.5,37.8 						"/>
					</defs>
					<clipPath id="SVGID_11_">
						<use xlink:href="#SVGID_22_"  style="overflow:visible;"/>
					</clipPath>
					<path class="st5" d="M58,88.5c0,0-10.7,4.1-16.8,4.1c-6,0-16.7-3.9-16.7-4c-4.1-3.8-7.8-8-11.1-12.5c4.7-1.5,9.5-2.6,14.5-3.3
						c0.2-1,0.3-2,0.4-3c0.9-6.7,1.4-13.5,1.4-20.4c0-10.2-1-20.1-3-29.7c4.4-1.9,9.3-2.9,14.5-2.9s10.1,1,14.6,2.9
						c-1.9,9.6-3,19.5-3,29.7c0,6.9,0.5,13.7,1.4,20.4c0.1,1,0.3,2,0.4,3c4.9,0.7,9.7,1.9,14.4,3.3C65.7,80.6,62,84.7,58,88.5z"/>
				</g>
			</g>
		</g>
		<g>
			<g>
				<g>
					<defs>
						<polygon id="SVGID_24_" points="58.5,32.3 23.8,45.2 23.8,40.6 58.5,27.8 						"/>
					</defs>
					<clipPath id="SVGID_13_">
						<use xlink:href="#SVGID_24_"  style="overflow:visible;"/>
					</clipPath>
					<path class="st6" d="M58,88.5c0,0-10.7,4.1-16.8,4.1c-6,0-16.7-3.9-16.7-4c-4.1-3.8-7.8-8-11.1-12.5c4.7-1.5,9.5-2.6,14.5-3.3
						c0.2-1,0.3-2,0.4-3c0.9-6.7,1.4-13.5,1.4-20.4c0-10.2-1-20.1-3-29.7c4.4-1.9,9.3-2.9,14.5-2.9s10.1,1,14.6,2.9
						c-1.9,9.6-3,19.5-3,29.7c0,6.9,0.5,13.7,1.4,20.4c0.1,1,0.3,2,0.4,3c4.9,0.7,9.7,1.9,14.4,3.3C65.7,80.6,62,84.7,58,88.5z"/>
				</g>
			</g>
		</g>
	</g>
</g>
</svg>
